# xmcd CD database file
#
# Track frame offsets:
#	150
#	37789
#	59929
#	97481
#	117509
#	144656
#	166469
#
# Disc length: 2581 seconds
#
# Revision: 0
# Processed by: cddbd v1.5.1PL0 Copyright (c) Steve Scherf et al.
# Submitted via: CDex 1.51
#
DISCID=6c0a1307
DTITLE=Betty Loo Taylor - LIVE!
DYEAR=1998
DGENRE=Jazz
TTITLE0=Spring Is Here
TTITLE1=Maybe - Soon
TTITLE2=Some Other Time - Lucky To Be me
TTITLE3=The Lady's in Love With You
TTITLE4=The Touch Of Your Lips
TTITLE5=On My Way To You
TTITLE6=The Night Has A Thousand Eyes
EXTD=YEAR: 1998
EXTT0=
EXTT1=
EXTT2=
EXTT3=
EXTT4=
EXTT5=
EXTT6=
PLAYORDER=
